<svg width="146" height="192" viewBox="0 0 146 192" fill="none" xmlns="http://www.w3.org/2000/svg">
<g clip-path="url(#clip0_2368_2)">
<path d="M19.3897 157.323V135.301H30.1489C32.9174 135.301 34.9937 135.825 36.3779 136.874C37.7831 137.922 38.4857 139.307 38.4857 141.026C38.4857 142.18 38.2026 143.187 37.6363 144.047C37.07 144.886 36.294 145.536 35.3083 145.997C34.3226 146.459 33.19 146.689 31.9107 146.689L32.5084 145.399C33.8926 145.399 35.1195 145.63 36.1892 146.091C37.2588 146.532 38.0872 147.193 38.6745 148.073C39.2827 148.954 39.5868 150.034 39.5868 151.314C39.5868 153.201 38.8423 154.68 37.3532 155.75C35.8641 156.798 33.6724 157.323 30.7781 157.323H19.3897ZM24.4547 153.484H30.4006C31.7219 153.484 32.7181 153.275 33.3893 152.855C34.0814 152.415 34.4274 151.723 34.4274 150.779C34.4274 149.856 34.0814 149.175 33.3893 148.734C32.7181 148.273 31.7219 148.042 30.4006 148.042H24.0772V144.33H29.5197C30.7571 144.33 31.7009 144.12 32.3511 143.701C33.0222 143.26 33.3578 142.599 33.3578 141.719C33.3578 140.859 33.0222 140.219 32.3511 139.8C31.7009 139.359 30.7571 139.139 29.5197 139.139H24.4547V153.484ZM50.2406 157.574C48.8354 157.574 47.577 157.302 46.4654 156.756C45.3748 156.211 44.5254 155.383 43.9172 154.271C43.309 153.138 43.0049 151.702 43.0049 149.961V140.397H47.9126V149.237C47.9126 150.643 48.2062 151.681 48.7934 152.352C49.4017 153.002 50.2511 153.327 51.3417 153.327C52.0967 153.327 52.7678 153.17 53.3551 152.855C53.9423 152.52 54.4037 152.016 54.7393 151.345C55.0749 150.653 55.2427 149.793 55.2427 148.766V140.397H60.1504V157.323H55.4943V152.667L56.3437 154.019C55.7775 155.194 54.9386 156.085 53.827 156.693C52.7364 157.281 51.5409 157.574 50.2406 157.574ZM66.8363 163.677C65.9554 163.677 65.085 163.541 64.2251 163.268C63.3652 162.996 62.6626 162.618 62.1173 162.136L63.9105 158.644C64.2881 158.979 64.718 159.242 65.2004 159.43C65.7037 159.619 66.1966 159.714 66.679 159.714C67.3711 159.714 67.9164 159.546 68.3149 159.21C68.7343 158.896 69.1119 158.361 69.4474 157.606L70.3283 155.529L70.7058 154.995L76.7775 140.397H81.4965L73.8518 158.361C73.3065 159.724 72.6773 160.794 71.9642 161.57C71.2721 162.346 70.4961 162.891 69.6362 163.206C68.7973 163.52 67.864 163.677 66.8363 163.677ZM69.7306 157.983L62.1803 140.397H67.2453L73.0968 154.554L69.7306 157.983ZM87.8538 157.323V139.453H80.8068V135.301H99.9972V139.453H92.9502V157.323H87.8538ZM109.073 157.574C107.143 157.574 105.444 157.197 103.976 156.442C102.529 155.687 101.407 154.659 100.61 153.359C99.813 152.037 99.4145 150.538 99.4145 148.86C99.4145 147.161 99.8025 145.662 100.578 144.361C101.375 143.04 102.456 142.012 103.819 141.278C105.182 140.523 106.724 140.146 108.443 140.146C110.1 140.146 111.589 140.502 112.911 141.215C114.253 141.907 115.312 142.914 116.088 144.235C116.864 145.536 117.252 147.098 117.252 148.923C117.252 149.112 117.242 149.332 117.221 149.583C117.2 149.814 117.179 150.034 117.158 150.244H103.41V147.381H114.578L112.69 148.231C112.69 147.35 112.512 146.584 112.156 145.934C111.799 145.284 111.306 144.781 110.677 144.424C110.048 144.047 109.314 143.858 108.475 143.858C107.636 143.858 106.891 144.047 106.241 144.424C105.612 144.781 105.119 145.294 104.763 145.966C104.406 146.616 104.228 147.392 104.228 148.294V149.049C104.228 149.971 104.427 150.789 104.826 151.503C105.245 152.195 105.822 152.729 106.556 153.107C107.311 153.464 108.192 153.642 109.198 153.642C110.1 153.642 110.887 153.505 111.558 153.233C112.25 152.96 112.879 152.551 113.445 152.006L116.057 154.837C115.281 155.718 114.305 156.4 113.131 156.882C111.956 157.344 110.604 157.574 109.073 157.574ZM128.699 157.574C126.874 157.574 125.249 157.207 123.823 156.473C122.397 155.718 121.275 154.68 120.457 153.359C119.66 152.037 119.261 150.538 119.261 148.86C119.261 147.161 119.66 145.662 120.457 144.361C121.275 143.04 122.397 142.012 123.823 141.278C125.249 140.523 126.874 140.146 128.699 140.146C130.482 140.146 132.034 140.523 133.355 141.278C134.676 142.012 135.652 143.071 136.281 144.456L132.474 146.5C132.034 145.703 131.478 145.116 130.807 144.739C130.157 144.361 129.444 144.172 128.668 144.172C127.829 144.172 127.074 144.361 126.402 144.739C125.731 145.116 125.196 145.651 124.798 146.343C124.42 147.035 124.232 147.874 124.232 148.86C124.232 149.846 124.42 150.685 124.798 151.377C125.196 152.069 125.731 152.604 126.402 152.981C127.074 153.359 127.829 153.547 128.668 153.547C129.444 153.547 130.157 153.369 130.807 153.013C131.478 152.635 132.034 152.037 132.474 151.219L136.281 153.296C135.652 154.659 134.676 155.718 133.355 156.473C132.034 157.207 130.482 157.574 128.699 157.574ZM149.302 140.146C150.644 140.146 151.839 140.418 152.888 140.964C153.958 141.488 154.797 142.306 155.405 143.417C156.013 144.508 156.317 145.913 156.317 147.633V157.323H151.409V148.388C151.409 147.025 151.105 146.018 150.497 145.368C149.91 144.718 149.071 144.393 147.98 144.393C147.204 144.393 146.502 144.56 145.873 144.896C145.264 145.211 144.782 145.703 144.425 146.375C144.09 147.046 143.922 147.906 143.922 148.954V157.323H139.014V133.98H143.922V145.085L142.821 143.669C143.429 142.537 144.3 141.666 145.432 141.058C146.565 140.45 147.854 140.146 149.302 140.146Z" fill="#1BA2DB"/>
<mask id="mask0_2368_2" style="mask-type:luminance" maskUnits="userSpaceOnUse" x="-96" y="-67" width="668" height="668">
<path d="M-95.5479 -66.2047H571.119V600.462H-95.5479V-66.2047Z" fill="white"/>
</mask>
<g mask="url(#mask0_2368_2)">
<path d="M139.328 95.4848C139.328 98.0075 137.284 100.052 134.762 100.052C132.239 100.052 130.195 98.0075 130.195 95.4848C130.195 92.9622 132.239 90.9182 134.762 90.9182C137.284 90.9182 139.328 92.9622 139.328 95.4848Z" fill="#46EB34"/>
<path d="M101.183 36.5441H95.7759V25.4147C95.7759 14.3827 86.7999 5.40673 75.7679 5.40673C64.7359 5.40673 55.7599 14.3827 55.7599 25.4147V36.5441H50.3533V25.4147C50.3533 11.4014 61.7546 6.50323e-05 75.7679 6.50323e-05C89.7813 6.50323e-05 101.183 11.4014 101.183 25.4147V36.5441Z" fill="#46EB34"/>
<path d="M110.445 84.1978C110.187 84.4724 109.916 84.7378 109.652 85.0084C109.917 84.7378 110.184 84.4738 110.445 84.1978Z" fill="#46EB34"/>
<path d="M106.642 87.9542C106.002 88.5475 105.354 89.1329 104.699 89.7075C105.344 89.1409 105.994 88.5555 106.642 87.9542Z" fill="#46EB34"/>
<path d="M112.261 82.2023C112.037 82.4583 111.801 82.7063 111.573 82.9596C111.803 82.7049 112.037 82.4596 112.261 82.2023Z" fill="#46EB34"/>
<path d="M108.563 86.1183C108.255 86.4223 107.939 86.7156 107.625 87.0143C107.939 86.7156 108.252 86.4236 108.563 86.1183Z" fill="#46EB34"/>
<path d="M111.574 82.9593C111.199 83.3753 110.828 83.7927 110.446 84.198C110.83 83.7913 111.2 83.374 111.574 82.9593Z" fill="#46EB34"/>
<path d="M107.626 87.0148C107.298 87.3282 106.97 87.6495 106.642 87.9548C106.974 87.6455 107.298 87.3282 107.626 87.0148Z" fill="#46EB34"/>
<path d="M112.261 82.2023C114.595 79.5303 116.687 76.6876 118.395 73.6529C119.623 71.4276 120.641 69.0809 121.261 66.6129L121.229 66.2049C119.889 72.0289 116.409 77.4516 112.261 82.2023Z" fill="#46EB34"/>
<path d="M109.653 85.0084C109.29 85.3804 108.93 85.7577 108.563 86.119C108.931 85.755 109.291 85.379 109.653 85.0084Z" fill="#46EB34"/>
<path d="M98.4794 47.3344C96.6034 47.3344 95.0834 45.8131 95.0834 43.9384C95.0834 42.0624 96.6034 40.5424 98.4794 40.5424C100.355 40.5424 101.875 42.0624 101.875 43.9384C101.875 45.8131 100.355 47.3344 98.4794 47.3344ZM53.7594 47.3344C51.8847 47.3344 50.3647 45.8131 50.3647 43.9384C50.3647 42.0624 51.8847 40.5424 53.7594 40.5424C55.6354 40.5424 57.1554 42.0624 57.1554 43.9384C57.1554 45.8131 55.6354 47.3344 53.7594 47.3344ZM120.195 52.9864L119.466 43.6864C119.078 38.7184 114.934 34.8864 109.951 34.8864H42.1927C37.2327 34.8864 33.1007 38.6731 32.6834 43.6157C30.9301 64.3731 26.6567 114.96 26.6567 114.96C26.6567 114.96 34.7821 116.652 54.8754 113.449C68.3567 111.302 81.2247 105.7 92.8407 98.5784C92.9821 98.4918 93.1247 98.4038 93.2661 98.3158C104.075 91.6318 114.67 82.9771 119.682 70.9518C120.159 69.8078 120.573 68.6384 120.91 67.4451C120.93 67.3758 120.949 67.3064 120.969 67.2384C121.062 66.8958 121.149 66.5518 121.229 66.2051L120.195 52.9864Z" fill="#46EB34"/>
<path d="M26.1415 118.144L25.7749 121.141C25.0789 126.829 29.5175 131.842 35.2482 131.842H116.2C121.754 131.842 126.135 127.12 125.718 121.582L123.09 86.7023C123.151 87.517 118.92 93.9716 115.238 97.569C96.7136 115.668 70.6282 119.814 45.0095 119.765C33.2695 119.742 26.1415 118.144 26.1415 118.144Z" fill="#09A7CB"/>
<path d="M145.061 68.2165C145.061 72.8712 141.288 76.6459 136.632 76.6459C131.977 76.6459 128.203 72.8712 128.203 68.2165C128.203 63.5605 131.977 59.7872 136.632 59.7872C141.288 59.7872 145.061 63.5605 145.061 68.2165Z" fill="#09A7CB"/>
<path d="M130.522 82.2023C130.522 83.4823 129.484 84.521 128.204 84.521C126.922 84.521 125.884 83.4823 125.884 82.2023C125.884 80.9223 126.922 79.8837 128.204 79.8837C129.484 79.8837 130.522 80.9223 130.522 82.2023Z" fill="#46EB34"/>
<path d="M24.2875 106.529C24.2875 107.81 23.2488 108.848 21.9688 108.848C20.6875 108.848 19.6501 107.81 19.6501 106.529C19.6501 105.249 20.6875 104.21 21.9688 104.21C23.2488 104.21 24.2875 105.249 24.2875 106.529Z" fill="#46EB34"/>
<path d="M19.6499 115.407C19.6499 119.028 16.7139 121.964 13.0913 121.964C9.46994 121.964 6.53394 119.028 6.53394 115.407C6.53394 111.784 9.46994 108.848 13.0913 108.848C16.7139 108.848 19.6499 111.784 19.6499 115.407Z" fill="#09A7CB"/>
</g>
<path d="M33.0404 177.059C33.0404 178.759 32.7181 180.206 32.0735 181.398C31.434 182.591 30.5611 183.502 29.4547 184.131C28.3533 184.756 27.115 185.068 25.7395 185.068C24.354 185.068 23.1105 184.753 22.0092 184.124C20.9078 183.494 20.0374 182.583 19.3979 181.391C18.7585 180.198 18.4387 178.754 18.4387 177.059C18.4387 175.359 18.7585 173.912 19.3979 172.72C20.0374 171.527 20.9078 170.618 22.0092 169.994C23.1105 169.365 24.354 169.05 25.7395 169.05C27.115 169.05 28.3533 169.365 29.4547 169.994C30.5611 170.618 31.434 171.527 32.0735 172.72C32.7181 173.912 33.0404 175.359 33.0404 177.059ZM29.6983 177.059C29.6983 175.958 29.5333 175.029 29.2034 174.273C28.8786 173.516 28.4193 172.943 27.8255 172.552C27.2317 172.161 26.5364 171.966 25.7395 171.966C24.9427 171.966 24.2474 172.161 23.6536 172.552C23.0598 172.943 22.5979 173.516 22.268 174.273C21.9432 175.029 21.7808 175.958 21.7808 177.059C21.7808 178.16 21.9432 179.089 22.268 179.845C22.5979 180.602 23.0598 181.175 23.6536 181.566C24.2474 181.957 24.9427 182.152 25.7395 182.152C26.5364 182.152 27.2317 181.957 27.8255 181.566C28.4193 181.175 28.8786 180.602 29.2034 179.845C29.5333 179.089 29.6983 178.16 29.6983 177.059ZM38.6645 178.094V184.855H35.4213V173.161H38.5122V175.224H38.6492C38.9081 174.544 39.342 174.006 39.9511 173.61C40.5601 173.209 41.2986 173.009 42.1664 173.009C42.9785 173.009 43.6865 173.186 44.2905 173.542C44.8944 173.897 45.3639 174.405 45.6989 175.064C46.0338 175.719 46.2013 176.501 46.2013 177.409V184.855H42.9582V177.988C42.9633 177.272 42.7805 176.714 42.41 176.313C42.0395 175.907 41.5295 175.704 40.8798 175.704C40.4434 175.704 40.0576 175.798 39.7227 175.986C39.3928 176.173 39.1339 176.447 38.9461 176.808C38.7634 177.163 38.6695 177.592 38.6645 178.094ZM52.0005 169.263V184.855H48.7574V169.263H52.0005ZM54.5984 184.855V173.161H57.8415V184.855H54.5984ZM56.2276 171.654C55.7454 171.654 55.3318 171.494 54.9867 171.174C54.6466 170.849 54.4766 170.461 54.4766 170.009C54.4766 169.563 54.6466 169.18 54.9867 168.86C55.3318 168.535 55.7454 168.373 56.2276 168.373C56.7097 168.373 57.1208 168.535 57.4609 168.86C57.806 169.18 57.9786 169.563 57.9786 170.009C57.9786 170.461 57.806 170.849 57.4609 171.174C57.1208 171.494 56.7097 171.654 56.2276 171.654ZM63.6826 178.094V184.855H60.4395V173.161H63.5303V175.224H63.6674C63.9262 174.544 64.3601 174.006 64.9692 173.61C65.5782 173.209 66.3167 173.009 67.1846 173.009C67.9966 173.009 68.7046 173.186 69.3086 173.542C69.9125 173.897 70.382 174.405 70.717 175.064C71.0519 175.719 71.2194 176.501 71.2194 177.409V184.855H67.9763V177.988C67.9814 177.272 67.7987 176.714 67.4282 176.313C67.0577 175.907 66.5476 175.704 65.898 175.704C65.4615 175.704 65.0758 175.798 64.7408 175.986C64.4109 176.173 64.1521 176.447 63.9643 176.808C63.7816 177.163 63.6877 177.592 63.6826 178.094ZM79.1046 185.083C77.9017 185.083 76.8663 184.839 75.9985 184.352C75.1357 183.86 74.4708 183.165 74.0039 182.266C73.5369 181.363 73.3035 180.294 73.3035 179.061C73.3035 177.858 73.5369 176.803 74.0039 175.894C74.4708 174.986 75.1281 174.278 75.9756 173.77C76.8283 173.263 77.8281 173.009 78.9751 173.009C79.7466 173.009 80.4647 173.133 81.1296 173.382C81.7996 173.625 82.3832 173.993 82.8806 174.486C83.3831 174.978 83.7739 175.597 84.053 176.343C84.3321 177.084 84.4717 177.952 84.4717 178.947V179.838H74.5977V177.828H81.4189C81.4189 177.361 81.3174 176.947 81.1144 176.587C80.9114 176.227 80.6297 175.945 80.2693 175.742C79.9141 175.534 79.5004 175.43 79.0284 175.43C78.5361 175.43 78.0996 175.544 77.719 175.772C77.3434 175.996 77.0491 176.298 76.8359 176.678C76.6227 177.054 76.5136 177.473 76.5085 177.934V179.845C76.5085 180.424 76.6151 180.924 76.8283 181.345C77.0465 181.766 77.3536 182.091 77.7495 182.319C78.1453 182.548 78.6148 182.662 79.1579 182.662C79.5182 182.662 79.8481 182.611 80.1475 182.51C80.447 182.408 80.7033 182.256 80.9164 182.053C81.1296 181.85 81.292 181.601 81.4037 181.307L84.4032 181.505C84.2509 182.226 83.9388 182.855 83.4668 183.393C82.9999 183.926 82.3959 184.342 81.6549 184.641C80.919 184.936 80.0689 185.083 79.1046 185.083ZM95.107 173.747C95.0461 173.133 94.7847 172.656 94.3229 172.316C93.861 171.976 93.2342 171.806 92.4425 171.806C91.9045 171.806 91.4503 171.882 91.0798 172.034C90.7093 172.182 90.425 172.387 90.2271 172.651C90.0343 172.915 89.9378 173.214 89.9378 173.549C89.9277 173.828 89.986 174.072 90.1129 174.28C90.2449 174.488 90.425 174.668 90.6534 174.821C90.8818 174.968 91.1457 175.097 91.4452 175.209C91.7446 175.316 92.0644 175.407 92.4044 175.483L93.8052 175.818C94.4853 175.97 95.1096 176.173 95.678 176.427C96.2464 176.681 96.7387 176.993 97.1549 177.363C97.5711 177.734 97.8934 178.17 98.1218 178.673C98.3552 179.175 98.4745 179.751 98.4796 180.401C98.4745 181.355 98.2309 182.182 97.7487 182.883C97.2716 183.578 96.5814 184.119 95.678 184.504C94.7797 184.885 93.6961 185.075 92.4273 185.075C91.1686 185.075 90.0723 184.883 89.1385 184.497C88.2097 184.111 87.4839 183.54 86.9611 182.784C86.4435 182.023 86.1719 181.081 86.1466 179.959H89.3364C89.3719 180.482 89.5216 180.919 89.7856 181.269C90.0546 181.614 90.4124 181.875 90.859 182.053C91.3107 182.226 91.8208 182.312 92.3892 182.312C92.9475 182.312 93.4322 182.231 93.8433 182.068C94.2594 181.906 94.5817 181.68 94.8101 181.391C95.0385 181.101 95.1527 180.769 95.1527 180.393C95.1527 180.043 95.0487 179.749 94.8406 179.51C94.6376 179.272 94.3381 179.069 93.9422 178.901C93.5514 178.734 93.0718 178.582 92.5034 178.444L90.8057 178.018C89.4912 177.698 88.4533 177.199 87.692 176.518C86.9307 175.838 86.5526 174.922 86.5577 173.77C86.5526 172.826 86.8038 172.001 87.3113 171.296C87.824 170.59 88.5269 170.04 89.4201 169.644C90.3134 169.248 91.3285 169.05 92.4653 169.05C93.6225 169.05 94.6325 169.248 95.4953 169.644C96.3632 170.04 97.0382 170.59 97.5203 171.296C98.0025 172.001 98.2512 172.819 98.2664 173.747H95.107ZM103.879 178.094V184.855H100.636V169.263H103.788V175.224H103.925C104.189 174.534 104.615 173.993 105.204 173.603C105.792 173.207 106.531 173.009 107.419 173.009C108.231 173.009 108.939 173.186 109.543 173.542C110.152 173.892 110.624 174.397 110.959 175.057C111.299 175.711 111.467 176.496 111.462 177.409V184.855H108.218V177.988C108.224 177.267 108.041 176.706 107.67 176.305C107.305 175.904 106.792 175.704 106.133 175.704C105.691 175.704 105.3 175.798 104.96 175.986C104.625 176.173 104.361 176.447 104.168 176.808C103.981 177.163 103.884 177.592 103.879 178.094ZM119.297 185.083C118.115 185.083 117.092 184.832 116.229 184.329C115.371 183.822 114.709 183.116 114.242 182.213C113.775 181.304 113.542 180.251 113.542 179.054C113.542 177.846 113.775 176.79 114.242 175.887C114.709 174.978 115.371 174.273 116.229 173.77C117.092 173.263 118.115 173.009 119.297 173.009C120.48 173.009 121.5 173.263 122.358 173.77C123.22 174.273 123.885 174.978 124.352 175.887C124.819 176.79 125.053 177.846 125.053 179.054C125.053 180.251 124.819 181.304 124.352 182.213C123.885 183.116 123.22 183.822 122.358 184.329C121.5 184.832 120.48 185.083 119.297 185.083ZM119.312 182.571C119.85 182.571 120.3 182.418 120.66 182.114C121.02 181.804 121.292 181.383 121.475 180.85C121.662 180.317 121.756 179.711 121.756 179.031C121.756 178.351 121.662 177.744 121.475 177.211C121.292 176.678 121.02 176.257 120.66 175.947C120.3 175.638 119.85 175.483 119.312 175.483C118.769 175.483 118.313 175.638 117.942 175.947C117.577 176.257 117.3 176.678 117.112 177.211C116.93 177.744 116.838 178.351 116.838 179.031C116.838 179.711 116.93 180.317 117.112 180.85C117.3 181.383 117.577 181.804 117.942 182.114C118.313 182.418 118.769 182.571 119.312 182.571ZM127.161 189.24V173.161H130.359V175.125H130.504C130.646 174.811 130.851 174.491 131.12 174.166C131.394 173.836 131.75 173.562 132.186 173.344C132.628 173.12 133.176 173.009 133.83 173.009C134.683 173.009 135.47 173.232 136.19 173.679C136.911 174.12 137.487 174.788 137.919 175.681C138.35 176.569 138.566 177.683 138.566 179.023C138.566 180.327 138.355 181.429 137.934 182.327C137.518 183.22 136.949 183.898 136.228 184.36C135.513 184.817 134.711 185.045 133.823 185.045C133.193 185.045 132.658 184.941 132.216 184.733C131.78 184.525 131.422 184.263 131.143 183.949C130.864 183.629 130.651 183.307 130.504 182.982H130.405V189.24H127.161ZM130.336 179.008C130.336 179.703 130.432 180.31 130.625 180.827C130.818 181.345 131.097 181.749 131.463 182.038C131.828 182.322 132.272 182.464 132.795 182.464C133.323 182.464 133.769 182.319 134.135 182.03C134.5 181.736 134.777 181.33 134.965 180.812C135.158 180.289 135.254 179.688 135.254 179.008C135.254 178.333 135.16 177.739 134.972 177.226C134.785 176.714 134.508 176.313 134.143 176.024C133.777 175.734 133.328 175.59 132.795 175.59C132.267 175.59 131.821 175.729 131.455 176.008C131.095 176.287 130.818 176.683 130.625 177.196C130.432 177.709 130.336 178.313 130.336 179.008Z" fill="#666666"/>
</g>
<defs>
<clipPath id="clip0_2368_2">
<rect width="145.061" height="191.404" fill="white"/>
</clipPath>
</defs>
</svg>
